HIERARCHY
ROOT Hips
{
    OFFSET 0.000000 0.000000 0.000000
    CHANNELS 6 Xposition Yposition Zposition Zrotation Xrotation Yrotation
    JOINT Spine
    {
        OFFSET -0.000000 7.871866 0.000000
        CHANNELS 3 Zrotation Xrotation Yrotation
        JOINT Spine1
        {
            OFFSET -0.000000 20.477478 0.000000
            CHANNELS 3 Zrotation Xrotation Yrotation
            JOINT Neck
            {
                OFFSET -0.000000 20.393381 1.853944
                CHANNELS 3 Zrotation Xrotation Yrotation
                JOINT Head
                {
                    OFFSET -0.000000 13.439772 -1.919967
                    CHANNELS 3 Zrotation Xrotation Yrotation
                    End Site
                    {
                        OFFSET -0.000000 23.999592 0.000000
                    }
                }
            }
            JOINT LeftShoulder
            {
                OFFSET 3.872530 18.410604 -0.225466
                CHANNELS 3 Zrotation Xrotation Yrotation
                JOINT LeftArm
                {
                    OFFSET 11.402711 0.000000 0.000000
                    CHANNELS 3 Zrotation Xrotation Yrotation
                    JOINT LeftForeArm
                    {
                        OFFSET 30.885973 0.000000 0.000000
                        CHANNELS 3 Zrotation Xrotation Yrotation
                        JOINT LeftHand
                        {
                            OFFSET 25.505432 0.000000 0.000000
                            CHANNELS 3 Zrotation Xrotation Yrotation
                            End Site
                            {
                                OFFSET 14.399755 0.000000 0.000000
                            }
                        }
                    }
                }
            }
            JOINT RightShoulder
            {
                OFFSET -3.749425 18.410604 -0.225466
                CHANNELS 3 Zrotation Xrotation Yrotation
                JOINT RightArm
                {
                    OFFSET -11.402711 0.000000 0.000000
                    CHANNELS 3 Zrotation Xrotation Yrotation
                    JOINT RightForeArm
                    {
                        OFFSET -30.885973 0.000000 0.000000
                        CHANNELS 3 Zrotation Xrotation Yrotation
                        JOINT RightHand
                        {
                            OFFSET -25.505432 0.000000 0.000000
                            CHANNELS 3 Zrotation Xrotation Yrotation
                            End Site
                            {
                                OFFSET -14.399755 0.000000 0.000000
                            }
                        }
                    }
                }
            }
        }
    }
    JOINT LeftUpLeg
    {
        OFFSET 9.599837 0.000000 0.000000
        CHANNELS 3 Zrotation Xrotation Yrotation
        JOINT LeftLeg
        {
            OFFSET -0.000000 -39.304852 0.000000
            CHANNELS 3 Zrotation Xrotation Yrotation
            JOINT LeftFoot
            {
                OFFSET -0.000000 -46.901295 0.000000
                CHANNELS 3 Zrotation Xrotation Yrotation
                JOINT LeftToeBase
                {
                    OFFSET -0.000000 -6.239893 14.399755
                    CHANNELS 3 Zrotation Xrotation Yrotation
                    End Site
                    {
                        OFFSET -0.000000 0.000000 3.839935
                    }
                }
            }
        }
    }
    JOINT RightUpLeg
    {
        OFFSET -9.599837 0.000000 0.000000
        CHANNELS 3 Zrotation Xrotation Yrotation
        JOINT RightLeg
        {
            OFFSET -0.000000 -39.304852 0.000000
            CHANNELS 3 Zrotation Xrotation Yrotation
            JOINT RightFoot
            {
                OFFSET -0.000000 -46.901295 0.000000
                CHANNELS 3 Zrotation Xrotation Yrotation
                JOINT RightToeBase
                {
                    OFFSET -0.000000 -6.239893 14.399755
                    CHANNELS 3 Zrotation Xrotation Yrotation
                    End Site
                    {
                        OFFSET -0.000000 0.000000 3.839935
                    }
                }
            }
        }
    }
}
MOTION
Frames:    9
Frame Time:    0.008333
1.393569    91.349014    -4.548490    0.238586    -1.408545    7.073247    -2.192623    -6.626669    -0.204837    1.129676    2.639618    -0.104330    -0.170899    22.125017    -1.348989    1.541928    -2.911832    -1.155053    16.052572    0.194591    -8.904304    -15.598351    9.179372    -3.415032    0.296659    1.288865    -0.975439    2.654277    1.243884    -2.051664    -15.779999    1.406122    -8.827236    11.567458    14.016446    7.201506    -0.160633    -0.823363    2.539936    9.586202    -0.948900    -1.539723    3.379968    4.714021    0.584457    -1.779564    2.820628    -3.981110    -5.316086    -8.840704    4.125875    0.000000    0.000000    0.000000    -4.821807    6.526808    -0.052069    0.344781    0.694340    -0.189109    3.315862    -7.881391    -10.830707    0.000000    0.000000    0.000000    
1.396232    91.349663    -4.557509    0.241226    -1.410967    7.077693    -2.188752    -6.614783    -0.207464    1.117199    2.626980    -0.106523    -0.171908    22.114948    -1.345019    1.547479    -2.889527    -1.150302    16.052124    0.200566    -8.899526    -15.600064    9.158764    -3.423397    0.288707    1.286942    -0.983311    2.663383    1.241576    -2.058696    -15.765032    1.405176    -8.829386    11.565478    13.999454    7.207295    -0.149704    -0.831324    2.546382    9.567862    -0.955554    -1.523469    3.376683    4.723433    0.477337    -1.785459    2.792618    -3.886959    -5.316211    -8.824152    4.128158    0.000000    0.000000    0.000000    -4.826313    6.522510    -0.066737    0.344740    0.698563    -0.182775    3.325065    -7.881886    -10.824078    0.000000    0.000000    0.000000    
1.400949    91.351250    -4.562689    0.247926    -1.420868    7.077995    -2.187479    -6.606822    -0.208438    1.111986    2.626254    -0.107657    -0.178470    22.108816    -1.339280    1.545452    -2.871538    -1.145223    16.040724    0.194568    -8.904393    -15.607333    9.170455    -3.419600    0.292389    1.264447    -0.979569    2.666972    1.219015    -2.061593    -15.760943    1.405051    -8.821347    11.570667    13.998139    7.204002    -0.148434    -0.841352    2.555170    9.555201    -0.964615    -1.513543    3.360818    4.716185    0.586083    -1.766405    2.824676    -3.994316    -5.323455    -8.827377    4.125906    0.000000    0.000000    0.000000    -4.835844    6.528047    -0.090291    0.346726    0.699256    -0.186653    3.321344    -7.877931    -10.797081    0.000000    0.000000    0.000000    
1.403127    91.352394    -4.569457    0.247330    -1.426912    7.081397    -2.158134    -6.561003    -0.220629    1.070205    2.555275    -0.120559    -0.203391    22.126570    -1.316988    1.570234    -2.852623    -1.119619    16.022207    0.222928    -8.870459    -15.591712    9.168166    -3.431663    0.289682    1.254881    -0.984583    2.680451    1.209177    -2.059281    -15.724581    1.402717    -8.809570    11.555035    13.999104    7.222827    -0.148164    -0.830783    2.568028    9.545630    -0.953684    -1.511240    3.361181    4.717422    0.573910    -1.765553    2.823173    -3.988978    -5.321456    -8.819012    4.118534    0.000000    0.000000    0.000000    -4.835846    6.530979    -0.080904    0.346827    0.700233    -0.168259    3.320867    -7.869451    -10.829273    0.000000    0.000000    0.000000    
1.406282    91.352814    -4.576555    0.248248    -1.437219    7.091095    -2.153030    -6.547675    -0.226438    1.065303    2.548601    -0.126923    -0.204078    22.122002    -1.311606    1.561771    -2.837382    -1.115667    16.010279    0.220848    -8.879827    -15.601077    9.177834    -3.423393    0.298163    1.241521    -0.978731    2.690334    1.195626    -2.064711    -15.719138    1.396261    -8.799383    11.552717    13.949339    7.212679    -0.118696    -0.795225    2.582494    9.525005    -0.916793    -1.489887    3.361892    4.720398    0.562462    -1.771282    2.825881    -4.001399    -5.311698    -8.817191    4.139345    0.000000    0.000000    0.000000    -4.838051    6.541192    -0.090152    0.347833    0.695149    -0.189650    3.322767    -7.862158    -10.805651    0.000000    0.000000    0.000000    
1.408091    91.353615    -4.582526    0.249924    -1.442958    7.093314    -2.149112    -6.543184    -0.227541    1.052698    2.547462    -0.128041    -0.186996    22.111776    -1.311179    1.543117    -2.814903    -1.117619    16.015358    0.214349    -8.887555    -15.619875    9.166288    -3.415492    0.301725    1.249909    -0.982060    2.701637    1.203887    -2.062420    -15.704645    1.390806    -8.788732    11.559173    13.966958    7.205572    -0.132162    -0.792016    2.598205    9.535561    -0.916320    -1.525417    3.359236    4.720798    0.566335    -1.770539    2.829741    -3.996119    -5.309300    -8.814363    4.125282    0.000000    0.000000    0.000000    -4.841186    6.547788    -0.088576    0.349152    0.686278    -0.208300    3.334584    -7.850654    -10.787406    0.000000    0.000000    0.000000    
1.409969    91.353699    -4.588084    0.252221    -1.452046    7.096682    -2.145722    -6.534294    -0.231305    1.043719    2.549009    -0.132029    -0.184743    22.096535    -1.302222    1.539234    -2.796952    -1.109072    16.020922    0.208861    -8.878775    -15.646845    9.190029    -3.425267    0.321234    1.234601    -0.971619    2.709896    1.188413    -2.068854    -15.698615    1.382224    -8.780327    11.566098    13.944617    7.200391    -0.125269    -0.768910    2.614363    9.533211    -0.894030    -1.534562    3.360268    4.724658    0.541662    -1.778399    2.831975    -3.986899    -5.289358    -8.815172    4.140522    0.000000    0.000000    0.000000    -4.844236    6.558133    -0.106021    0.350135    0.678122    -0.203044    3.331529    -7.845447    -10.776135    0.000000    0.000000    0.000000    
1.391562    91.355667    -4.583050    0.244728    -1.474851    7.101484    -2.188006    -6.530971    -0.237630    1.088761    2.566390    -0.137506    -0.173039    22.085285    -1.297901    1.531414    -2.777141    -1.105434    16.026371    0.211176    -8.881307    -15.663097    9.165382    -3.421279    0.316027    1.243956    -0.981357    2.734867    1.197309    -2.068892    -15.683234    1.377661    -8.773811    11.567293    13.963878    7.202407    -0.134486    -0.764762    2.614040    9.543452    -0.890488    -1.541628    3.403150    4.756034    0.533893    -1.814390    2.816584    -3.980617    -5.291130    -8.801466    4.131876    0.000000    0.000000    0.000000    -4.805176    6.589198    -0.113438    0.321389    0.669383    -0.185363    3.337874    -7.833422    -10.796952    0.000000    0.000000    0.000000    
1.393770    91.356224    -4.588791    0.247766    -1.485976    7.101984    -2.183922    -6.518471    -0.240996    1.081206    2.562827    -0.141004    -0.176466    22.074505    -1.288794    1.527785    -2.758365    -1.096932    16.025183    0.208408    -8.885088    -15.684311    9.177416    -3.408489    0.321225    1.233889    -0.985593    2.747651    1.187012    -2.069080    -15.681286    1.372629    -8.761423    11.572617    13.964887    7.203542    -0.129147    -0.751161    2.616006    9.551301    -0.877063    -1.542480    3.401446    4.765639    0.526206    -1.817391    2.811103    -3.973426    -5.288070    -8.795329    4.130140    0.000000    0.000000    0.000000    -4.809423    6.600200    -0.122887    0.321238    0.664502    -0.160415    3.353183    -7.830363    -10.809601    0.000000    0.000000    0.000000    
